<?xml version="1.0" encoding="iso-8859-1"?>
<!-- Generator: Adobe Illustrator 25.2.3, SVG Export Plug-In . SVG Version: 6.00 Build 0)  -->
<svg version="1.1" baseProfile="basic" id="Layer_1"
	 xmlns="http://www.w3.org/2000/svg" xmlns:xlink="http://www.w3.org/1999/xlink" x="0px" y="0px" viewBox="0 0 64 64"
	 xml:space="preserve">
<path d="M32,44c-5.514,0-10-4.486-10-10s4.486-10,10-10s10,4.486,10,10S37.514,44,32,44z M32,28c-3.309,0-6,2.691-6,6s2.691,6,6,6
	s6-2.691,6-6S35.309,28,32,28z"/>
<path d="M47,51H17c-4.411,0-8-3.589-8-8V26c0-4.411,3.589-8,8-8h3.528c0.762,0,1.447-0.424,1.788-1.105l0.789-1.578
	C24.129,13.271,26.185,12,28.472,12h7.057c2.287,0,4.343,1.271,5.366,3.316l0.789,1.578C42.024,17.576,42.71,18,43.472,18H47
	c4.411,0,8,3.589,8,8v17C55,47.411,51.411,51,47,51z M17,22c-2.206,0-4,1.794-4,4v17c0,2.206,1.794,4,4,4h30c2.206,0,4-1.794,4-4V26
	c0-2.206-1.794-4-4-4h-3.528c-2.287,0-4.343-1.271-5.366-3.316l-0.789-1.578C36.976,16.424,36.29,16,35.528,16h-7.057
	c-0.762,0-1.447,0.424-1.788,1.105l-0.789,1.578C24.871,20.729,22.815,22,20.528,22H17z"/>
</svg>